<svg xmlns="http://www.w3.org/2000/svg" height="32" viewBox="0 0 128 128" width="32" style="margin:1em">
    <path d="M20 0a4 4 0 100 8 4 4 0 100-8zM36 0a4 4 0 100 8 4 4 0 100-8zM52 0a4 4 0 100 8 4 4 0 100-8zM68 0a4 4 0 100 8 4 4 0 100-8zM84 0a4 4 0 100 8 4 4 0 100-8zM44 120a4 4 0 100 8 4 4 0 100-8zM60 120a4 4 0 100 8 4 4 0 100-8zM76 120a4 4 0 100 8 4 4 0 100-8zM92 120a4 4 0 100 8 4 4 0 100-8zM108 120a4 4 0 100 8 4 4 0 100-8zM124 120a4 4 0 100 8 4 4 0 100-8zM8 4a4 4 0 10-8 0 4 4 0 108 0zM8 20a4 4 0 10-8 0 4 4 0 108 0zM8 36a4 4 0 10-8 0 4 4 0 108 0zM8 52a4 4 0 10-8 0 4 4 0 108 0zM8 68a4 4 0 10-8 0 4 4 0 108 0zM8 84a4 4 0 10-8 0 4 4 0 108 0zM128 44a4 4 0 10-8 0 4 4 0 108 0zM128 60a4 4 0 10-8 0 4 4 0 108 0zM128 76a4 4 0 10-8 0 4 4 0 108 0zM128 92a4 4 0 10-8 0 4 4 0 108 0zM128 108a4 4 0 10-8 0 4 4 0 108 0z"/>
    <text font-family="Courier" font-size="157.791" font-weight="400" letter-spacing="0" stroke-width="2.113" word-spacing="0" x="15.59" y="109.766" style="line-height:1.25;-inkscape-font-specification:Courier">
        <tspan x="15.59" y="109.766">C</tspan>
    </text>
    <path d="M128 12a4 4 0 10-8 0 4 4 0 108 0zM128 28a4 4 0 10-8 0 4 4 0 108 0zM100 0a4 4 0 100 8 4 4 0 100-8zM116 0a4 4 0 100 8 4 4 0 100-8zM12 120a4 4 0 100 8 4 4 0 100-8zM28 120a4 4 0 100 8 4 4 0 100-8zM8 100a4 4 0 10-8 0 4 4 0 108 0zM8 116a4 4 0 10-8 0 4 4 0 108 0z"/>
</svg>
